<svg xmlns="http://www.w3.org/2000/svg" viewBox="0 0 100 100">
<rect width="100" height="100" fill="#E8DFF5"/>
<path d="M18 100c2-18 15-28 32-28s30 10 32 28z" fill="#E2ECE9" stroke="#00000014" stroke-width="2"/>

<rect x="44" y="60" width="12" height="14" rx="5" fill="#6E452B"/>
<circle cx="50" cy="48" r="22" fill="#6E452B"/>
<circle cx="28" cy="26" r="9" fill="#1C1C1C"/><circle cx="72" cy="26" r="9" fill="#1C1C1C"/><path d="M26 44c0-16 10-24 24-24s24 8 24 24c-6-6-14-9-24-9s-18 3-24 9z" fill="#1C1C1C"/>
<circle cx="42" cy="50" r="2.6" fill="#2B2B2B"/><circle cx="58" cy="50" r="2.6" fill="#2B2B2B"/>
<circle cx="37" cy="57" r="3.5" fill="#F28B82" opacity=".45"/><circle cx="63" cy="57" r="3.5" fill="#F28B82" opacity=".45"/>
<path d="M44 59q6 5 12 0" fill="none" stroke="#2B2B2B" stroke-width="2.2" stroke-linecap="round"/>
</svg>
